<svg enable-background="new 0 0 40 40" height="40" viewBox="0 0 40 40" width="40" xmlns="http://www.w3.org/2000/svg" xmlns:xlink="http://www.w3.org/1999/xlink"><image height="42" opacity=".1" overflow="visible" transform="translate(8)" width="26" xlink:href="D795CA29.png"/><path d="m22.2 27.2v-7.2h2c1.5 0 2 0 2-.1s.1-1 .2-2.1.2-2.2.2-2.4v-.4h-2.2-2.2v-1.6c0-.9.1-1.8.2-1.9.2-.5.7-.7 2.6-.7h1.7v-2.5-2.5h-2.7c-3 0-3.8.1-5 .7-.8.4-1.6 1.2-2 1.9-.5 1.1-.7 1.8-.7 4.3l-.1 2.3h-1.5-1.5v2.5 2.5h1.5 1.5v7.2 7.2h3 3z" fill="#acaaa6"/></svg>