<svg enable-background="new 0 0 40 40" height="40" viewBox="0 0 40 40" width="40" xmlns="http://www.w3.org/2000/svg" xmlns:xlink="http://www.w3.org/1999/xlink"><image height="42" opacity=".1" overflow="visible" width="42" xlink:href="1BA08623.png"/><path d="m28.9 5.6h-17.8c-3.1 0-5.5 2.4-5.5 5.5v5.9 11.8c0 3.1 2.5 5.5 5.5 5.5h17.7c3.1 0 5.5-2.5 5.5-5.5v-11.8-5.9c.1-3.1-2.3-5.5-5.4-5.5zm1.6 3.3h.6v.6 4.3h-4.9v-4.9zm-14.6 8.1c.9-1.2 2.5-2.1 4.1-2.1s3.2.9 4.1 2.1c.6.9 1 1.8 1 3 0 2.8-2.3 5.1-5.1 5.1-2.7 0-5.1-2.2-5.1-5.1 0-1.1.4-2.1 1-3zm15.7 11.9c0 1.5-1.2 2.7-2.7 2.7h-17.8c-1.5 0-2.7-1.2-2.7-2.7v-11.9h4.3c-.4.9-.6 2-.6 3 0 4.3 3.6 7.9 7.9 7.9s7.9-3.6 7.9-7.9c0-1-.2-2.1-.6-3h4.3z" fill="#fff"/></svg>