<svg enable-background="new 0 0 40 40" height="40" viewBox="0 0 40 40" width="40" xmlns="http://www.w3.org/2000/svg" xmlns:xlink="http://www.w3.org/1999/xlink"><image height="40" opacity=".1" overflow="visible" transform="translate(-1 1)" width="43" xlink:href="503E00AB.png"/><path d="m4.1 14c.7-.5 1.8-1.4 3.3-2.8 1.5-1.3 2.7-2.3 3.7-2.9 1.3-.7 2.4-1 3.5-.7.5.1 1 .5 1.4 1.1s.8 1.2 1 1.9c.2.6.5 2.1.9 4.5.1.4.1 1 .2 2 .1.9.2 1.7.3 2.3s.3 1.3.5 2c.3.7.6 1.3 1 1.8.8.8 1.6 1 2.4.4.5-.4 1.2-1.3 1.9-2.7.9-1.7 1.3-3 1.4-3.9.1-1.4-.1-2.3-.7-2.7s-1.6-.6-3.1-.4c.3-.9.7-1.7 1.2-2.5s1.1-1.4 1.6-1.9c.6-.5 1.2-.9 1.8-1.3s1.1-.7 1.6-.8c.4-.2.8-.3 1.1-.3 2.5-.4 4.2 0 5.1 1.2.7.9.9 2.1.6 3.6-.3 1.3-1 3.4-2.3 6.2-1.2 2.8-2.8 5.5-4.7 8-2.2 2.9-4.4 5.1-6.8 6.5-.6.4-1.3.7-2.1.9s-1.5.2-2.3 0c-1.1-.5-2-1.6-2.8-3.4-.4-.9-.9-2.7-1.6-5.4-.7-2.6-1.1-4.3-1.4-5.1-.1-.2-.2-.6-.3-1.1s-.3-.9-.4-1.3-.3-.7-.5-1.1c-.3-.5-.7-.8-1.1-.8s-1 .1-1.6.3-1.1.3-1.5.2c-.2 0-.4-.2-.6-.5s-.4-.6-.7-.7z" fill="#fff"/></svg>